<?xml version="1.0" encoding="UTF-8"?>
<svg
  width="800"
  height="300"
  viewBox="0 0 800 300"
  fill="none"
  xmlns="http://www.w3.org/2000/svg"
>
  <defs>
    <linearGradient id="bgGrad" x1="0" y1="0" x2="0" y2="1">
      <stop offset="0%" stop-color="#6A11CB" />
      <stop offset="100%" stop-color="#2575FC" />
    </linearGradient>
    <linearGradient id="bldGrad" x1="0" y1="0" x2="0" y2="1">
      <stop offset="0%" stop-color="#FFFFFF" stop-opacity="0.7"/>
      <stop offset="100%" stop-color="#FFFFFF" stop-opacity="0.2"/>
    </linearGradient>
  </defs>

  <rect width="800" height="300" fill="url(#bgGrad)" />

  <circle cx="650" cy="80" r="40" fill="rgba(255, 255, 255, 0.6)" />
  <circle cx="650" cy="80" r="20" fill="rgba(255, 255, 255, 0.9)" />

  <ellipse cx="200" cy="70" rx="80" ry="30" fill="rgba(255,255,255,0.5)" />
  <ellipse cx="250" cy="90" rx="60" ry="20" fill="rgba(255,255,255,0.5)" />
  <ellipse cx="550" cy="50" rx="100" ry="35" fill="rgba(255,255,255,0.4)" />

  <g fill="url(#bldGrad)">
    <rect x="50"  y="120" width="60" height="130" rx="5" />
    <rect x="140" y="100" width="80" height="150" rx="5" />
    <rect x="260" y="140" width="50" height="110" rx="5" />
    <rect x="340" y="90"  width="100" height="160" rx="5" />
    <rect x="480" y="130" width="70" height="120" rx="5" />
  </g>

  <path
    d="M0 260 L800 260 L800 300 L0 300 Z"
    fill="rgba(0,0,0,0.1)"
  />

  <text
    x="50"
    y="200"
    font-family="Segoe UI, sans-serif"
    font-size="48"
    fill="white"
    font-weight="600"
  >
    ItemGallery
  </text>
</svg>
